{
  "title": "Catching.Faith.2015.AR-SUB.HDRip.XviD.AC3-N33B",
  "uid": 12266284,
  "size": 1061751188,
  "categoryP": "video",
  "categoryS": "movies",
  "magnet": "?xt=urn:btih:103a22c9dfdd4b070f9bde48fcc4a9dc77e00b5f&amp;dn=Catching.Faith.2015.AR-SUB.HDRip.XviD.AC3-N33B&amp;tr=udp%3A%2F%2Ftracker.openbittorrent.com%3A80&amp;tr=udp%3A%2F%2Fopen.demonii.com%3A1337&amp;tr=udp%3A%2F%2Ftracker.coppersurfer.tk%3A6969&amp;tr=udp%3A%2F%2Fexodus.desync.com%3A6969",
  "seeders": 59,
  "leechers": 14,
  "uploader": "xxxlavalxxx",
  "files": 4,
  "time": 1440241162,
  "description": " &lt;a href=&quot;http://extraimago.com/image/LiE&quot; rel=&quot;nofollow&quot; target=&quot;_NEW&quot;&gt;http://extraimago.com/image/LiE&lt;/a&gt;\n &lt;a href=&quot;\nhttp://www.imdb.com/title/tt3475020/&quot; rel=&quot;nofollow&quot; target=&quot;_NEW&quot;&gt;\nhttp://www.imdb.com/title/tt3475020/&lt;/a&gt;\n\n\nFrom the outside, Alexa has the perfect life. Her son is the high school football star, daughter a straight A student and her husband is CFO of a booming start-up company. The sudden death of her father, however, causes Alexa to realize there is more to life than appearances. Her perfectly crafted social image is disrupted when she embarks on a journey of self-discovery. Learning to embrace truth, Alexa rediscovers her faith and what it means to be family.\n\nDirector: John K.D. Graham\nWriters: Alexandra Boylan, John K.D. Graham\nStars: Bill Engvall, Lorena Segura York, Lauren Myers\nGenres: Drama | Family | Sport\nCountry: USA\nLanguage: English\n\n\nCatching.Faith.2015.AR-SUB.HDRip.XviD.AC3-N33B\n &lt;a href=&quot;\nhttp://www.imdb.com/title/tt3475020/&quot; rel=&quot;nofollow&quot; target=&quot;_NEW&quot;&gt;\nhttp://www.imdb.com/title/tt3475020/&lt;/a&gt;\n\nSource 720p-ALZ\n\nGeneral\nComplete name: Catching.Faith.2015.AR-SUB.HDRip.XviD.AC3-N33B.avi\nFormat: AVI\nFormat/Info: Audio Video Interleave\nFile size: 987 MiB\nDuration: 1h 27mn\nOverall bit rate: 1 571 Kbps\n\nVideo\nID: 0\nFormat: MPEG-4 Visual\nFormat profile: Advanced Simple@L5\nFormat settings, BVOP: 2\nFormat settings, QPel: No\nFormat settings, GMC: No warppoints\nFormat settings, Matrix: Default (H.263)\nMuxing mode: Packed bitstream\nCodec ID: XVID\nCodec ID/Hint: XviD\nDuration: 1h 27mn\nBit rate: 1 243 Kbps\nWidth: 720 pixels\nHeight: 304 pixels\nDisplay aspect ratio: 2.35:1\nFrame rate: 25.000 fps\nColor space: YUV\nChroma subsampling: 4:2:0\nBit depth: 8 bits\nScan type: Progressive\nCompression mode: Lossy\nBits/(Pixel*Frame): 0.227\nStream size: 781 MiB (79%)\nWriting library: XviD 73\n\nAudio\nID: 1\nFormat: AC-3\nFormat/Info: Audio Coding 3\nMode extension: CM (complete main)\nFormat settings, Endianness: Big\nCodec ID: 2000\nDuration: 1h 27mn\nBit rate mode: Constant\nBit rate: 320 Kbps\nChannel(s): 2 channels\nChannel positions: Front: L R\nSampling rate: 44.1 KHz\nCompression mode: Lossy\nStream size: 201 MiB (20%)\nAlignment: Aligned on interleaves\nInterleave, duration: 70 ms (1.74 video frames)\nInterleave, preload duration: 208 ms \n\n &lt;a href=&quot;\nhttp://extraimago.com/image/LiI&quot; rel=&quot;nofollow&quot; target=&quot;_NEW&quot;&gt;\nhttp://extraimago.com/image/LiI&lt;/a&gt; &lt;a href=&quot;\nhttp://extraimago.com/image/Lid&quot; rel=&quot;nofollow&quot; target=&quot;_NEW&quot;&gt;\nhttp://extraimago.com/image/Lid&lt;/a&gt; &lt;a href=&quot;\nhttp://extraimago.com/image/Lih&quot; rel=&quot;nofollow&quot; target=&quot;_NEW&quot;&gt;\nhttp://extraimago.com/image/Lih&lt;/a&gt; &lt;a href=&quot;\nhttp://extraimago.com/image/Lib&quot; rel=&quot;nofollow&quot; target=&quot;_NEW&quot;&gt;\nhttp://extraimago.com/image/Lib&lt;/a&gt; &lt;a href=&quot;\nhttp://extraimago.com/image/Li3&quot; rel=&quot;nofollow&quot; target=&quot;_NEW&quot;&gt;\nhttp://extraimago.com/image/Li3&lt;/a&gt;",
  "parsed": {
    "xt": "urn:btih:103a22c9dfdd4b070f9bde48fcc4a9dc77e00b5f",
    "dn": "Catching.Faith.2015.AR-SUB.HDRip.XviD.AC3-N33B",
    "tr": [
      "udp://exodus.desync.com:6969",
      "udp://open.demonii.com:1337",
      "udp://tracker.coppersurfer.tk:6969",
      "udp://tracker.openbittorrent.com:80"
    ],
    "infoHash": "103a22c9dfdd4b070f9bde48fcc4a9dc77e00b5f",
    "infoHashBuffer": {
      "type": "Buffer",
      "data": [
        16,
        58,
        34,
        201,
        223,
        221,
        75,
        7,
        15,
        155,
        222,
        72,
        252,
        196,
        169,
        220,
        119,
        224,
        11,
        95
      ]
    },
    "name": "Catching.Faith.2015.AR-SUB.HDRip.XviD.AC3-N33B",
    "announce": [
      "udp://exodus.desync.com:6969",
      "udp://open.demonii.com:1337",
      "udp://tracker.coppersurfer.tk:6969",
      "udp://tracker.openbittorrent.com:80"
    ],
    "urlList": []
  },
  "previous": 8,
  "peers": 20,
  "last_updated": "2016-12-26T16:28:58.097Z"
}